# xmcd
#
# Track frame offsets:
#	150
#	780
#	15884
#	40780
#	63084
#	80906
#	114072
#	140860
#	159417
#	186173
#	237424
#
# Disc length: 3228 seconds
#
# Revision: 0
# Processed by: cddbd v1.5.2PL0 Copyright (c) Steve Scherf et al.
# Submitted via: audiograbber 1.83.01
#
DISCID=790c9a0b
DTITLE=Driftin - Sextanten
DYEAR=2008
DGENRE=Blues
TTITLE0=Land in Sicht
TTITLE1=Summernite
TTITLE2=Kapellmeister Blues
TTITLE3=Nothing at all
TTITLE4=Where is my Mojo
TTITLE5=It´s about Time
TTITLE6=Shamal
TTITLE7=Celestial Voices
TTITLE8=All along the Watchtower
TTITLE9=Sextanten
TTITLE10=Lesma
EXTD=
EXTT0=
EXTT1=
EXTT2=
EXTT3=
EXTT4=
EXTT5=
EXTT6=
EXTT7=
EXTT8=
EXTT9=
EXTT10=
PLAYORDER=
